<?xml version="1.0" encoding="UTF-8" standalone="no"?><!DOCTYPE svg PUBLIC "-//W3C//DTD SVG 1.1//EN" "http://www.w3.org/Graphics/SVG/1.1/DTD/svg11.dtd"><svg width="100%" height="100%" viewBox="0 0 1241 875" version="1.1" xmlns="http://www.w3.org/2000/svg" xmlns:xlink="http://www.w3.org/1999/xlink" xml:space="preserve" xmlns:serif="http://www.serif.com/" style="fill-rule:evenodd;clip-rule:evenodd;stroke-linejoin:round;stroke-miterlimit:2;"><rect x="0" y="0" width="1240.16" height="874.016"/><rect x="25.777" y="24.953" width="1188.6" height="824.11" style="fill:#ff8a20;"/><path id="Flap" d="M0,0l0,874.016l1240.16,0l0,-874.016l-1240.16,0Z" style="fill:none;"/><g id="Full-Bike" serif:id="Full Bike"><g id="Wheel"><ellipse cx="702.583" cy="464.037" rx="87.806" ry="71.127" style="fill:#505050;"/><ellipse cx="700.25" cy="466.579" rx="70.053" ry="56.747" style="fill:#565656;"/></g><g id="Frame"><path d="M652.624,369.309l-21.874,-12.388l-188.599,218.518l21.874,12.388l188.599,-218.518Z" style="fill:#363636;"/><path d="M655.696,371.049l-24.946,-14.128l-188.599,218.518l24.947,14.128l188.598,-218.518Z" style="fill:#363636;"/><path d="M641.806,363.183l-186.425,216l-11.056,-6.262l186.425,-216l11.056,6.262Z" style="fill:#3f3f3f;"/><path d="M639.38,314.224l-28.45,9.802l137.62,262.109l28.45,-9.802l-137.62,-262.109Z" style="fill:#363636;"/><path d="M478.494,347.729l-28.451,9.802l69.863,133.06l28.451,-9.802l-69.863,-133.06Z" style="fill:#363636;"/><path d="M478.494,347.729l-28.451,9.802l69.863,133.06l28.451,-9.802l-69.863,-133.06Z" style="fill:#363636;"/><path d="M773.098,568.901l-11.159,3.844l-133.717,-254.676l11.158,-3.845l133.718,254.677Z" style="fill:#404040;"/></g><g id="Bottom"><path d="M810.116,578.408c0,-2.19 -1.778,-3.969 -3.969,-3.969l-78.387,0c-2.19,0 -3.969,1.779 -3.969,3.969l0,7.936c0,2.191 1.779,3.969 3.969,3.969l78.387,0c2.191,0 3.969,-1.778 3.969,-3.969l0,-7.936Z" style="fill:#de0001;"/><path d="M495.296,578.73c0,-2.19 -1.778,-3.968 -3.968,-3.968l-75.144,0c-2.19,0 -3.968,1.778 -3.968,3.968l0,7.937c0,2.19 1.778,3.968 3.968,3.968l75.144,0c2.19,0 3.968,-1.778 3.968,-3.968l0,-7.937Z" style="fill:#de0001;"/><path d="M532.599,486.218l-12.693,4.373l-69.33,-132.046l12.692,-4.373l69.331,132.046Z" style="fill:#404040;"/></g><g id="Bike"><path id="DriveTrain" d="M704.828,489.163l-169.187,23.344c-6.047,1.746 -12.558,2.668 -19.334,2.668c-32.73,0 -59.302,-21.525 -59.302,-48.038c0,-25.684 24.935,-46.686 56.253,-47.976l3.049,-0.063l3.05,0.063c5.046,0.208 9.925,0.927 14.56,2.095l170.911,20.941l2.962,0.121c14.611,1.203 26.028,11.211 26.028,23.362c0,12.15 -11.417,22.158 -26.028,23.361l-2.962,0.122Z" style="fill:#6d6d6d;fill-opacity:0.97;"/><path d="M624.569,464.215c1.616,0.383 2.758,1.827 2.758,3.488c0,1.661 -1.142,3.104 -2.758,3.487c-16.736,3.966 -43.374,10.277 -56.036,13.277c-1.725,0.409 -3.543,0.006 -4.934,-1.094c-1.391,-1.1 -2.202,-2.776 -2.202,-4.549l0,-22.243c0,-1.773 0.811,-3.448 2.202,-4.548c1.391,-1.1 3.209,-1.503 4.934,-1.094c12.662,3 39.3,9.311 56.036,13.276Z" style="fill:#333;"/><g id="Pedal"><ellipse cx="523.099" cy="465.284" rx="31.949" ry="25.88" style="fill-opacity:0.74;"/><path d="M530.099,466.332c1.492,-1.498 1.296,-3.633 -0.437,-4.766l-68.025,-44.46c-1.732,-1.132 -4.35,-0.836 -5.842,0.662l-5.406,5.428c-1.492,1.498 -1.297,3.633 0.436,4.766l68.025,44.459c1.733,1.133 4.351,0.836 5.843,-0.662l5.406,-5.427Z" style="fill:#de0001;"/><path d="M475.449,411.797c-1.118,-1.612 -3.452,-2.272 -5.209,-1.472l-34.573,15.733c-1.757,0.8 -2.275,2.757 -1.158,4.369l4.052,5.842c1.118,1.612 3.451,2.271 5.208,1.472l34.573,-15.733c1.757,-0.8 2.276,-2.758 1.158,-4.37l-4.051,-5.841Z" style="fill:#363636;"/></g><g id="Seat"></g><path d="M506.432,356.046c0.322,-1.674 -0.078,-3.406 -1.101,-4.769c-1.024,-1.363 -2.576,-2.23 -4.274,-2.386c-16.786,-1.548 -60.818,-5.608 -77.962,-7.189c-1.788,-0.165 -3.563,0.431 -4.889,1.641c-1.327,1.21 -2.083,2.922 -2.083,4.718c0,0.001 0,0.002 0,0.002c0,6.291 5.099,11.39 11.39,11.39c20.465,0 62.475,0 74.794,0c2.013,0 3.743,-1.428 4.124,-3.404c0,-0.001 0,-0.002 0.001,-0.003Z"/><g id="HandleBars"><path d="M707.774,300.947c-0.747,2.277 -2.624,4.102 -5.272,4.782l-111.928,28.762c-4.518,1.161 -9.577,-1.449 -11.29,-5.824c-1.714,-4.376 0.563,-8.871 5.08,-10.032l106.06,-27.254l7.167,-15.426c2.314,-4.98 8.499,-7.71 13.803,-6.093c5.304,1.617 7.731,6.973 5.417,11.953l-8.253,17.761c-0.223,0.48 -0.482,0.94 -0.784,1.371Z"/></g></g><path id="Ground" d="M861.236,589.359c0,-2.283 -1.853,-4.136 -4.136,-4.136l-474.043,0c-2.282,0 -4.136,1.853 -4.136,4.136l0,8.272c0,2.283 1.854,4.137 4.136,4.137l474.043,0c2.283,0 4.136,-1.854 4.136,-4.137l0,-8.272Z" style="fill:#363636;"/><path d="M601.917,394.4c1.097,-1.268 1.567,-2.962 1.281,-4.614c-0.285,-1.652 -1.296,-3.089 -2.754,-3.916c-0.383,-0.218 -0.766,-0.434 -1.14,-0.647c-2.564,-1.454 -5.799,-0.896 -7.727,1.335c0,0 -0.001,0.001 -0.001,0.001c-1.694,1.96 -2.421,4.576 -1.98,7.129c0.441,2.553 2.003,4.774 4.256,6.052c0.184,0.104 0.36,0.204 0.528,0.299c1.039,0.589 2.349,0.363 3.13,-0.54c1.129,-1.307 2.811,-3.252 4.407,-5.099Z" style="fill:#de0001;"/></g><g><path d="M555.835,671.905c-0.261,4.32 -0.508,8.809 -0.742,13.468c-0.234,4.658 -0.351,9.72 -0.351,15.185c-0.052,2.707 -0.052,5.036 0,6.988c0.052,1.952 0.156,3.592 0.312,4.919c0.156,1.327 0.364,2.381 0.625,3.162c0.26,0.781 0.572,1.353 0.936,1.717c0.209,1.354 0.326,3.097 0.352,5.231c0.026,2.134 -0.013,4.295 -0.117,6.481c-0.729,0.312 -1.497,0.507 -2.304,0.585c-0.806,0.078 -1.652,0.117 -2.537,0.117l-3.826,0c-1.353,0 -2.693,-0.039 -4.02,-0.117c-1.328,-0.078 -2.603,-0.247 -3.826,-0.507c-1.223,-0.261 -2.329,-0.677 -3.318,-1.249c-0.104,-1.094 -0.091,-2.317 0.039,-3.67c0.13,-1.353 0.247,-2.576 0.351,-3.669c0.677,-0.313 1.171,-1.419 1.483,-3.319c0.313,-1.899 0.534,-4.164 0.664,-6.792c0.13,-2.629 0.195,-5.387 0.195,-8.276l0,-7.847c0,-2.654 -0.078,-4.71 -0.234,-6.167c-0.156,-1.458 -0.442,-2.785 -0.859,-3.982c-0.364,0 -0.767,-0.026 -1.21,-0.078c-0.442,-0.052 -0.846,-0.143 -1.21,-0.274c-0.364,-0.13 -0.651,-0.351 -0.859,-0.663c-0.208,-0.312 -0.26,-0.755 -0.156,-1.327c0.156,-0.833 0.364,-1.783 0.625,-2.85c0.26,-1.067 0.52,-2.121 0.78,-3.162c0.261,-1.041 0.521,-2.004 0.781,-2.889c0.26,-0.885 0.495,-1.587 0.703,-2.108c2.915,0 5.972,0.065 9.173,0.195c3.202,0.13 6.051,0.43 8.55,0.898Z" style="fill-rule:nonzero;"/><path d="M585.503,691.502l0,-3.24c0,-1.328 -0.091,-2.603 -0.273,-3.826c-0.182,-1.223 -0.534,-2.277 -1.054,-3.162c-0.521,-0.885 -1.302,-1.327 -2.343,-1.327c-1.04,0.26 -1.86,0.807 -2.459,1.639c-0.598,0.833 -1.054,1.848 -1.366,3.045c-0.312,1.197 -0.521,2.551 -0.625,4.06c-0.104,1.51 -0.156,3.071 -0.156,4.685c0,1.977 0.247,3.552 0.742,4.723c0.494,1.171 1.496,1.757 3.006,1.757c0.885,0 1.626,-0.274 2.225,-0.82c0.598,-0.547 1.067,-1.236 1.405,-2.069c0.338,-0.833 0.573,-1.744 0.703,-2.733c0.13,-0.989 0.195,-1.899 0.195,-2.732Zm-9.603,17.41c-2.863,-0.052 -5.192,-0.533 -6.988,-1.444c-1.796,-0.911 -3.201,-2.121 -4.216,-3.63c-1.015,-1.51 -1.705,-3.241 -2.069,-5.192c-0.364,-1.952 -0.546,-3.995 -0.546,-6.129c0,-3.331 0.208,-6.389 0.624,-9.174c0.417,-2.785 1.249,-5.166 2.499,-7.144c1.249,-1.978 3.005,-3.513 5.27,-4.606c2.264,-1.093 5.244,-1.64 8.939,-1.64c4.841,0 8.692,0.43 11.555,1.288c2.863,0.859 5.062,2.2 6.598,4.021c1.535,1.822 2.524,4.19 2.966,7.105c0.443,2.915 0.664,6.402 0.664,10.462c0,2.238 -0.013,4.724 -0.039,7.456c-0.026,2.733 -0.208,5.504 -0.547,8.315c-0.338,2.811 -0.897,5.543 -1.678,8.198c-0.781,2.654 -1.913,5.01 -3.396,7.066c-1.484,2.056 -3.397,3.708 -5.739,4.957c-2.342,1.25 -5.231,1.874 -8.666,1.874c-3.592,-0.104 -6.702,-0.611 -9.33,-1.522c-2.629,-0.911 -4.88,-2.147 -6.754,-3.709c-0.156,-3.175 -0.234,-6.376 -0.234,-9.603c0.729,-0.156 1.575,-0.273 2.538,-0.351c0.963,-0.078 1.978,-0.156 3.045,-0.235c1.067,-0.078 2.121,-0.143 3.162,-0.195c1.041,-0.052 2.03,-0.104 2.966,-0.156c0,0.469 0.026,1.002 0.078,1.601c0.053,0.598 0.183,1.171 0.391,1.717c0.208,0.547 0.546,1.002 1.015,1.367c0.468,0.364 1.093,0.546 1.874,0.546c0.989,0 1.834,-0.429 2.537,-1.288c0.703,-0.859 1.262,-1.952 1.679,-3.279c0.416,-1.327 0.676,-2.759 0.78,-4.294c0.105,-1.536 0.078,-2.98 -0.078,-4.333c-2.134,1.301 -5.101,1.951 -8.9,1.951Z" style="fill-rule:nonzero;"/><path d="M629.615,691.502l0,-3.24c0,-1.328 -0.091,-2.603 -0.273,-3.826c-0.182,-1.223 -0.534,-2.277 -1.054,-3.162c-0.521,-0.885 -1.301,-1.327 -2.342,-1.327c-1.041,0.26 -1.861,0.807 -2.46,1.639c-0.598,0.833 -1.054,1.848 -1.366,3.045c-0.312,1.197 -0.521,2.551 -0.625,4.06c-0.104,1.51 -0.156,3.071 -0.156,4.685c0,1.977 0.247,3.552 0.742,4.723c0.494,1.171 1.496,1.757 3.006,1.757c0.885,0 1.626,-0.274 2.225,-0.82c0.599,-0.547 1.067,-1.236 1.405,-2.069c0.339,-0.833 0.573,-1.744 0.703,-2.733c0.13,-0.989 0.195,-1.899 0.195,-2.732Zm-9.603,17.41c-2.863,-0.052 -5.192,-0.533 -6.988,-1.444c-1.795,-0.911 -3.201,-2.121 -4.216,-3.63c-1.015,-1.51 -1.704,-3.241 -2.069,-5.192c-0.364,-1.952 -0.546,-3.995 -0.546,-6.129c0,-3.331 0.208,-6.389 0.624,-9.174c0.417,-2.785 1.25,-5.166 2.499,-7.144c1.249,-1.978 3.006,-3.513 5.27,-4.606c2.264,-1.093 5.244,-1.64 8.939,-1.64c4.841,0 8.693,0.43 11.555,1.288c2.863,0.859 5.062,2.2 6.598,4.021c1.535,1.822 2.524,4.19 2.966,7.105c0.443,2.915 0.664,6.402 0.664,10.462c0,2.238 -0.013,4.724 -0.039,7.456c-0.026,2.733 -0.208,5.504 -0.546,8.315c-0.339,2.811 -0.898,5.543 -1.679,8.198c-0.781,2.654 -1.913,5.01 -3.396,7.066c-1.484,2.056 -3.397,3.708 -5.739,4.957c-2.342,1.25 -5.231,1.874 -8.666,1.874c-3.591,-0.104 -6.701,-0.611 -9.33,-1.522c-2.628,-0.911 -4.88,-2.147 -6.753,-3.709c-0.157,-3.175 -0.235,-6.376 -0.235,-9.603c0.729,-0.156 1.575,-0.273 2.538,-0.351c0.963,-0.078 1.978,-0.156 3.045,-0.235c1.067,-0.078 2.121,-0.143 3.162,-0.195c1.041,-0.052 2.03,-0.104 2.967,-0.156c0,0.469 0.026,1.002 0.078,1.601c0.052,0.598 0.182,1.171 0.39,1.717c0.208,0.547 0.547,1.002 1.015,1.367c0.468,0.364 1.093,0.546 1.874,0.546c0.989,0 1.835,-0.429 2.537,-1.288c0.703,-0.859 1.262,-1.952 1.679,-3.279c0.416,-1.327 0.676,-2.759 0.781,-4.294c0.104,-1.536 0.078,-2.98 -0.079,-4.333c-2.134,1.301 -5.1,1.951 -8.9,1.951Z" style="fill-rule:nonzero;"/><path d="M670.292,671.905c-0.26,4.32 -0.507,8.809 -0.742,13.468c-0.234,4.658 -0.351,9.72 -0.351,15.185c-0.052,2.707 -0.052,5.036 0,6.988c0.052,1.952 0.156,3.592 0.312,4.919c0.156,1.327 0.365,2.381 0.625,3.162c0.26,0.781 0.572,1.353 0.937,1.717c0.208,1.354 0.325,3.097 0.351,5.231c0.026,2.134 -0.013,4.295 -0.117,6.481c-0.729,0.312 -1.496,0.507 -2.303,0.585c-0.807,0.078 -1.653,0.117 -2.538,0.117l-3.825,0c-1.354,0 -2.694,-0.039 -4.021,-0.117c-1.327,-0.078 -2.603,-0.247 -3.826,-0.507c-1.223,-0.261 -2.329,-0.677 -3.318,-1.249c-0.104,-1.094 -0.091,-2.317 0.039,-3.67c0.13,-1.353 0.247,-2.576 0.351,-3.669c0.677,-0.313 1.172,-1.419 1.484,-3.319c0.312,-1.899 0.533,-4.164 0.663,-6.792c0.131,-2.629 0.196,-5.387 0.196,-8.276l0,-7.847c0,-2.654 -0.078,-4.71 -0.235,-6.167c-0.156,-1.458 -0.442,-2.785 -0.858,-3.982c-0.365,0 -0.768,-0.026 -1.211,-0.078c-0.442,-0.052 -0.845,-0.143 -1.21,-0.274c-0.364,-0.13 -0.65,-0.351 -0.859,-0.663c-0.208,-0.312 -0.26,-0.755 -0.156,-1.327c0.156,-0.833 0.365,-1.783 0.625,-2.85c0.26,-1.067 0.52,-2.121 0.781,-3.162c0.26,-1.041 0.52,-2.004 0.78,-2.889c0.261,-0.885 0.495,-1.587 0.703,-2.108c2.915,0 5.973,0.065 9.174,0.195c3.201,0.13 6.051,0.43 8.549,0.898Z" style="fill-rule:nonzero;"/></g><g><path d="M441.096,198.086c1.429,2.659 2.472,5.26 3.129,7.802c0.658,2.542 0.776,4.99 0.357,7.342c-0.42,2.353 -1.438,4.555 -3.054,6.605c-1.616,2.05 -4.006,3.926 -7.17,5.626c-0.642,0.345 -1.29,0.678 -1.944,1c-0.654,0.322 -1.292,0.621 -1.912,0.895c0.221,0.413 0.525,1.032 0.91,1.859c0.386,0.827 0.823,1.641 1.312,2.442c0.49,0.801 1.045,1.477 1.667,2.029c0.622,0.552 1.269,0.795 1.943,0.729c0.887,1.65 1.733,3.116 2.54,4.396c0.806,1.28 1.698,2.721 2.677,4.323c-1.256,0.852 -2.725,1.774 -4.407,2.767c-1.682,0.992 -3.326,1.92 -4.931,2.782c-1.329,0.715 -2.642,1.406 -3.938,2.073c-1.296,0.667 -2.509,1.215 -3.637,1.644c-0.55,-0.473 -1.017,-0.931 -1.403,-1.373c-0.385,-0.443 -0.781,-1.014 -1.185,-1.712c-0.405,-0.698 -0.891,-1.575 -1.458,-2.629c-0.566,-1.055 -1.293,-2.407 -2.18,-4.058c0.384,-0.384 0.511,-1.028 0.379,-1.932c-0.131,-0.905 -0.658,-2.38 -1.58,-4.425c-0.922,-2.045 -2.285,-4.829 -4.088,-8.35c-1.804,-3.522 -4.186,-8.091 -7.146,-13.71c-0.641,-1.192 -1.285,-2.116 -1.933,-2.772c-0.648,-0.656 -1.452,-1.052 -2.411,-1.187c-0.926,-1.393 -1.817,-2.804 -2.675,-4.235c-0.857,-1.43 -1.771,-2.829 -2.743,-4.198c1.414,-0.996 3.024,-2.068 4.83,-3.216c1.806,-1.148 3.7,-2.269 5.682,-3.364c1.982,-1.095 3.955,-2.125 5.917,-3.091c1.963,-0.966 3.796,-1.789 5.499,-2.468c2.856,-1.062 5.454,-1.616 7.793,-1.662c2.339,-0.045 4.452,0.341 6.339,1.158c1.887,0.818 3.558,2.003 5.013,3.555c1.455,1.553 2.724,3.337 3.808,5.355Zm-13.119,6.43c-1.348,-2.289 -2.792,-3.656 -4.33,-4.099c-1.539,-0.444 -3.546,-0.001 -6.021,1.33c0.179,0.553 0.5,1.371 0.963,2.452c0.462,1.08 0.991,2.229 1.586,3.446c0.595,1.217 1.195,2.416 1.8,3.597c0.605,1.182 1.117,2.162 1.536,2.941c0.296,0.551 0.671,1.221 1.125,2.011c0.454,0.79 0.812,1.262 1.072,1.418c2.522,-1.355 3.986,-3.029 4.393,-5.02c0.407,-1.992 -0.301,-4.684 -2.124,-8.076Z" style="fill-rule:nonzero;"/><path d="M502.912,207.117c0.227,0.637 0.477,1.418 0.751,2.343c0.274,0.924 0.528,1.87 0.761,2.837c0.234,0.966 0.446,1.871 0.635,2.715c0.19,0.844 0.299,1.538 0.327,2.081c-1.03,0.366 -2.195,0.781 -3.494,1.243c-1.3,0.463 -2.608,0.901 -3.925,1.314c-1.317,0.414 -2.557,0.772 -3.719,1.075c-1.163,0.304 -2.156,0.464 -2.979,0.48c-1.367,-1.668 -2.679,-3.452 -3.935,-5.353c-1.257,-1.9 -2.527,-3.645 -3.81,-5.232c-1.284,-1.587 -2.569,-2.87 -3.856,-3.848c-1.288,-0.979 -2.597,-1.397 -3.927,-1.255c-0.463,-0.056 -0.878,-0.06 -1.248,-0.011c-0.369,0.048 -0.792,0.102 -1.268,0.161c0.143,0.557 0.301,1.08 0.476,1.571c0.175,0.49 0.358,1.005 0.55,1.544c0.488,1.373 0.936,2.554 1.343,3.542c0.407,0.987 0.811,1.852 1.213,2.593c0.402,0.741 0.835,1.374 1.298,1.9c0.463,0.525 1.02,1.004 1.671,1.435c0.821,2.305 1.532,4.538 2.136,6.699c-1.209,0.485 -2.569,1.01 -4.08,1.576c-1.511,0.566 -3.047,1.14 -4.608,1.723c-1.56,0.583 -3.1,1.145 -4.62,1.686c-1.521,0.541 -2.894,1.03 -4.12,1.466c-0.611,-0.942 -1.103,-1.858 -1.475,-2.748c-0.372,-0.89 -0.774,-1.865 -1.207,-2.927c0.788,-0.888 0.63,-3.041 -0.477,-6.46c-1.103,-3.254 -2.088,-6.176 -2.955,-8.768c-0.867,-2.592 -1.673,-4.971 -2.416,-7.138c-0.744,-2.166 -1.435,-4.185 -2.073,-6.057c-0.639,-1.872 -1.273,-3.691 -1.901,-5.456c-0.716,-2.011 -1.39,-3.594 -2.022,-4.75c-0.633,-1.156 -1.514,-2.003 -2.645,-2.54c-0.453,-1.274 -0.956,-2.532 -1.508,-3.772c-0.552,-1.24 -1.046,-2.473 -1.482,-3.699c0.841,-0.741 2.016,-1.436 3.526,-2.084c1.51,-0.648 3.123,-1.277 4.839,-1.888c3.187,-1.134 6.204,-2.167 9.049,-3.097c2.846,-0.93 5.645,-1.719 8.398,-2.367c2.623,-0.547 4.942,-0.668 6.957,-0.363c2.014,0.305 3.793,0.956 5.336,1.954c1.543,0.998 2.849,2.301 3.919,3.909c1.07,1.608 1.954,3.393 2.652,5.354c1.256,3.531 1.418,6.623 0.484,9.276c-0.935,2.653 -2.697,5.075 -5.286,7.268c1.33,-0.142 2.537,-0.088 3.621,0.161c1.083,0.25 2.066,0.646 2.95,1.188c0.883,0.542 1.683,1.196 2.398,1.964c0.715,0.767 1.379,1.622 1.99,2.565c0.615,1.107 1.148,2.022 1.599,2.746c0.451,0.723 0.879,1.303 1.282,1.739c0.404,0.437 0.781,0.758 1.131,0.965c0.35,0.207 0.756,0.339 1.218,0.396c0.364,0.091 0.769,0.14 1.213,0.148c0.445,0.007 0.882,0.073 1.313,0.196Zm-28.292,-24.074c-0.762,-1.828 -1.786,-2.997 -3.072,-3.506c-1.286,-0.509 -2.787,-0.458 -4.503,0.153c-0.393,0.14 -0.776,0.304 -1.151,0.492c-0.375,0.189 -0.692,0.385 -0.951,0.588c0.516,1.915 1.044,3.827 1.585,5.734c0.541,1.907 1.143,3.792 1.806,5.655l0.937,2.401c1.521,-0.541 2.719,-1.133 3.595,-1.776c0.876,-0.643 1.51,-1.422 1.903,-2.335c0.393,-0.914 0.557,-1.966 0.492,-3.159c-0.065,-1.192 -0.279,-2.608 -0.641,-4.247Z" style="fill-rule:nonzero;"/><path d="M507.993,208.343c0.18,-0.58 0.341,-1.128 0.484,-1.645c0.142,-0.516 0.23,-1.087 0.266,-1.712c0.035,-0.625 -0.002,-1.325 -0.11,-2.102c-0.109,-0.778 -0.293,-1.697 -0.552,-2.759c-0.283,-1.163 -0.683,-2.753 -1.201,-4.77c-0.518,-2.017 -1.051,-4.15 -1.599,-6.401c-0.548,-2.25 -1.096,-4.447 -1.645,-6.59c-0.548,-2.143 -1.001,-3.948 -1.358,-5.415c-0.296,-1.214 -0.576,-2.364 -0.84,-3.451c-0.265,-1.088 -0.568,-2.112 -0.909,-3.074c-0.342,-0.961 -0.778,-1.819 -1.31,-2.574c-0.532,-0.754 -1.175,-1.361 -1.93,-1.82c-0.246,-1.011 -0.463,-2.177 -0.651,-3.498c-0.187,-1.32 -0.353,-2.498 -0.499,-3.534c1.455,-0.408 2.922,-0.819 4.401,-1.232c1.48,-0.414 2.978,-0.806 4.495,-1.175c1.619,-0.394 3.426,-0.781 5.423,-1.16c1.997,-0.379 3.721,-0.558 5.173,-0.536l1.751,7.85c-0.402,1.652 -0.601,3.254 -0.598,4.806c0.003,1.553 0.172,3.293 0.508,5.22c0.335,1.928 0.823,4.152 1.464,6.675c0.641,2.522 1.392,5.554 2.254,9.094c0.308,1.264 0.625,2.566 0.952,3.906c0.326,1.341 0.687,2.605 1.084,3.794c0.397,1.189 0.863,2.281 1.4,3.275c0.537,0.995 1.169,1.778 1.898,2.351l0.926,3.471l1.44,5.917c-1.733,0.582 -3.516,1.124 -5.35,1.624c-1.833,0.5 -3.686,0.978 -5.557,1.433c-1.062,0.259 -2.301,0.56 -3.717,0.905c-1.416,0.345 -2.661,0.621 -3.735,0.829c-0.225,-0.481 -0.442,-1.044 -0.653,-1.689c-0.211,-0.645 -0.43,-1.328 -0.66,-2.049c-0.229,-0.721 -0.426,-1.423 -0.593,-2.106c-0.166,-0.682 -0.317,-1.302 -0.452,-1.858Z" style="fill-rule:nonzero;"/><path d="M575.008,191.076c0.167,1.973 0.351,4.076 0.554,6.307c0.202,2.231 0.298,4.451 0.287,6.66c-2.461,0.444 -4.874,0.855 -7.239,1.233c-2.365,0.379 -4.849,0.458 -7.454,0.239c-0.771,-1.785 -1.621,-3.665 -2.55,-5.638c-0.929,-1.974 -1.898,-3.955 -2.907,-5.944c-1.01,-1.989 -2.04,-3.936 -3.091,-5.84c-1.05,-1.904 -2.112,-3.702 -3.186,-5.393c-0.197,-0.288 -0.515,-0.783 -0.953,-1.484c-0.438,-0.702 -0.88,-1.429 -1.325,-2.182c-0.445,-0.753 -0.869,-1.444 -1.271,-2.071c-0.401,-0.628 -0.69,-1.009 -0.866,-1.142c0.105,1.142 0.198,2.009 0.279,2.602c0.082,0.593 0.187,1.353 0.315,2.281c0.128,0.929 0.32,2.229 0.577,3.901c0.256,1.672 0.634,4.129 1.133,7.37c0.244,1.385 0.55,2.368 0.919,2.947c0.368,0.58 0.809,1.202 1.321,1.868c0.078,0.567 0.203,1.377 0.374,2.431c0.171,1.053 0.335,2.147 0.492,3.281c0.156,1.135 0.277,2.208 0.364,3.221c0.087,1.012 0.111,1.758 0.072,2.236c-2.578,0.355 -5.156,0.71 -7.734,1.066c-2.578,0.355 -5.329,0.602 -8.252,0.742c-0.419,-1.518 -0.793,-3.279 -1.122,-5.283c-0.329,-2.004 -0.674,-4.321 -1.036,-6.95c0.339,-0.205 0.582,-0.448 0.726,-0.731c0.145,-0.283 0.267,-0.641 0.365,-1.075c0.103,-1.538 -0.028,-4.015 -0.394,-7.433c-0.366,-3.417 -0.897,-7.652 -1.593,-12.705c-0.192,-1.393 -0.402,-2.822 -0.63,-4.288c-0.228,-1.466 -0.459,-3.049 -0.694,-4.751c-0.099,-0.722 -0.223,-1.335 -0.372,-1.84c-0.148,-0.505 -0.33,-0.966 -0.545,-1.383c-0.215,-0.417 -0.461,-0.869 -0.738,-1.356c-0.278,-0.488 -0.569,-1.078 -0.875,-1.771c-0.08,-0.2 -0.161,-0.596 -0.242,-1.189l-0.597,-4.331c-0.11,-0.799 -0.241,-1.556 -0.392,-2.271c1.062,-0.304 2.171,-0.548 3.328,-0.734c1.156,-0.186 2.327,-0.36 3.513,-0.524c2.063,-0.284 4.013,-0.526 5.85,-0.727c1.838,-0.2 3.729,-0.303 5.672,-0.308c1.104,1.529 2.394,3.742 3.87,6.638c1.476,2.897 3.016,5.969 4.619,9.216c0.503,0.981 0.988,1.926 1.454,2.833c0.467,0.908 0.932,1.803 1.395,2.685c0.463,0.882 0.929,1.79 1.4,2.723c0.47,0.934 0.989,1.939 1.558,3.017c-0.071,-0.516 -0.177,-1.381 -0.318,-2.597c-0.142,-1.215 -0.297,-2.533 -0.466,-3.955c-0.17,-1.421 -0.34,-2.843 -0.509,-4.264c-0.17,-1.422 -0.318,-2.597 -0.446,-3.525c-0.107,-0.773 -0.246,-1.398 -0.416,-1.873c-0.171,-0.476 -0.356,-0.871 -0.557,-1.185c-0.201,-0.313 -0.41,-0.587 -0.626,-0.82c-0.216,-0.233 -0.426,-0.519 -0.63,-0.859c-0.43,-2.357 -0.737,-4.299 -0.921,-5.823c-0.184,-1.525 -0.33,-3.068 -0.44,-4.629c0.862,-0.224 1.842,-0.451 2.94,-0.681c1.098,-0.23 2.111,-0.409 3.039,-0.537c0.825,-0.113 1.729,-0.225 2.713,-0.334c0.983,-0.109 1.981,-0.207 2.993,-0.294c1.013,-0.087 1.981,-0.115 2.905,-0.085c0.923,0.03 1.734,0.102 2.433,0.216c0.107,0.774 0.255,1.66 0.445,2.658c0.19,0.998 0.367,1.999 0.532,3.001c0.164,1.001 0.321,1.952 0.471,2.851c0.15,0.898 0.239,1.635 0.265,2.209c-0.451,0.535 -0.855,1.13 -1.212,1.783c-0.357,0.653 -0.482,1.367 -0.375,2.14c0.204,1.863 0.421,3.817 0.65,5.861c0.229,2.044 0.497,4.279 0.805,6.706c0.309,2.427 0.65,5.099 1.026,8.016c0.376,2.917 0.816,6.206 1.32,9.867Z" style="fill-rule:nonzero;"/><path d="M625.735,193.52c-1.885,2.89 -4.311,5.254 -7.278,7.092c-2.967,1.839 -6.79,2.921 -11.471,3.248c-3.173,0.15 -5.92,0.033 -8.242,-0.35c-2.322,-0.384 -4.31,-1.019 -5.962,-1.906c-1.652,-0.888 -3.009,-2.013 -4.069,-3.378c-1.061,-1.364 -1.917,-2.952 -2.567,-4.765c-0.869,-2.486 -1.44,-5.159 -1.715,-8.018c-0.276,-2.859 -0.44,-6.162 -0.493,-9.909c-0.022,-5.154 0.241,-9.491 0.79,-13.013c0.548,-3.521 1.298,-6.59 2.25,-9.206c1.102,-2.983 2.748,-5.31 4.936,-6.981c2.189,-1.671 5.363,-2.667 9.523,-2.986c2.029,-0.081 4.112,0.019 6.251,0.301c2.138,0.282 4.175,0.799 6.112,1.552c1.937,0.753 3.708,1.769 5.314,3.048c1.606,1.278 2.918,2.925 3.936,4.941c0.149,3.121 0.185,5.697 0.11,7.728c-0.075,2.031 -0.312,3.622 -0.712,4.773c-2.185,0.136 -4.383,0.206 -6.595,0.212c-2.212,0.005 -4.231,-0.109 -6.056,-0.343c-0.117,-0.883 -0.249,-1.91 -0.396,-3.079c-0.147,-1.169 -0.383,-2.259 -0.71,-3.269c-0.327,-1.01 -0.756,-1.863 -1.286,-2.558c-0.531,-0.696 -1.212,-1.037 -2.045,-1.025c-1.092,0.067 -1.942,0.678 -2.55,1.832c-0.609,1.154 -1.071,2.527 -1.386,4.119c-0.316,1.592 -0.526,3.248 -0.632,4.967c-0.105,1.72 -0.176,3.152 -0.212,4.298c-0.128,1.98 -0.163,4.076 -0.105,6.287c0.058,2.212 0.213,4.903 0.467,8.075c0.119,1.039 0.315,2.052 0.59,3.037c0.274,0.985 0.638,1.852 1.091,2.6c0.453,0.748 1.008,1.352 1.665,1.811c0.658,0.459 1.429,0.682 2.314,0.67c1.353,-0.02 2.362,-0.424 3.027,-1.215c0.666,-0.79 1.159,-1.76 1.481,-2.91c0.322,-1.15 0.526,-2.376 0.612,-3.679c0.085,-1.302 0.225,-2.449 0.419,-3.441c1.975,-0.185 4.016,-0.344 6.122,-0.478c2.107,-0.134 4.253,-0.191 6.44,-0.17c0.442,1.815 0.744,3.789 0.904,5.921c0.161,2.132 0.203,4.188 0.128,6.167Z" style="fill-rule:nonzero;"/><path d="M653.282,157.673c-0.52,2.147 -0.938,4.316 -1.253,6.508c-0.315,2.192 -0.558,4.456 -0.73,6.793c0.715,0.173 1.448,0.296 2.2,0.368c0.751,0.072 1.414,0.109 1.989,0.112c0.419,-0.012 0.864,-0.152 1.335,-0.421c0.47,-0.268 0.901,-0.541 1.294,-0.817c1.191,0.115 2.464,0.198 3.819,0.249c1.355,0.052 2.533,0.309 3.534,0.771c0.282,1.962 0.231,3.996 -0.155,6.103c-0.385,2.107 -0.71,4.272 -0.976,6.495c-0.891,0.019 -1.936,0.01 -3.135,-0.027c-1.199,-0.036 -2.568,-0.207 -4.108,-0.512c-0.13,-0.274 -0.336,-0.581 -0.617,-0.922c-0.281,-0.34 -0.603,-0.528 -0.966,-0.563c-0.824,-0.131 -1.715,-0.243 -2.673,-0.335c-0.959,-0.092 -1.858,-0.126 -2.697,-0.102c-0.194,2.02 -0.344,3.993 -0.45,5.917c-0.107,1.925 -0.161,3.985 -0.162,6.181c0.56,0.158 1.138,0.266 1.733,0.323c0.596,0.058 1.179,0.114 1.749,0.168c1.554,0.15 2.68,-0.004 3.378,-0.46c0.697,-0.456 1.118,-1.435 1.262,-2.937c1.673,0.003 3.372,0.14 5.098,0.411c1.726,0.27 3.418,0.485 5.076,0.644c0.467,1.666 0.68,3.399 0.638,5.199c-0.042,1.799 -0.178,3.891 -0.407,6.274c-0.044,0.467 -0.106,0.971 -0.184,1.512c-0.078,0.542 -0.165,1.043 -0.262,1.504c-5.87,-0.406 -10.52,-0.709 -13.952,-0.908c-3.432,-0.199 -6.071,-0.36 -7.915,-0.485c-1.844,-0.125 -3.143,-0.21 -3.897,-0.257c-0.754,-0.046 -1.39,-0.094 -1.908,-0.144c-1.502,-0.144 -3.036,-0.37 -4.601,-0.677c-1.566,-0.307 -3.01,-0.655 -4.332,-1.043c-0.078,-1.367 -0.043,-2.815 0.103,-4.343c0.147,-1.529 0.298,-3.096 0.452,-4.702c0.845,-1.174 1.484,-2.524 1.918,-4.051c0.435,-1.527 0.799,-3.558 1.095,-6.092c0.211,-1.653 0.409,-3.581 0.595,-5.786c0.185,-2.204 0.442,-5.016 0.771,-8.436c0.189,-1.969 0.329,-3.707 0.422,-5.214c0.092,-1.508 0.131,-2.864 0.116,-4.068c-0.015,-1.204 -0.114,-2.351 -0.297,-3.44c-0.183,-1.09 -0.456,-2.201 -0.818,-3.334c0.13,-1.347 0.246,-2.695 0.35,-4.045c0.103,-1.349 0.271,-2.693 0.504,-4.03c3.025,0.082 6.214,0.231 9.565,0.448c3.352,0.217 6.79,0.495 10.313,0.833c3.057,0.294 6.066,0.674 9.028,1.142c2.961,0.467 5.35,1.049 7.166,1.747c-0.111,2.237 -0.242,4.421 -0.394,6.55c-0.152,2.13 -0.387,4.303 -0.705,6.521c-0.575,-0.003 -1.33,-0.036 -2.265,-0.1c-0.935,-0.063 -1.882,-0.141 -2.84,-0.233c-0.959,-0.092 -1.825,-0.189 -2.6,-0.289c-0.775,-0.101 -1.289,-0.189 -1.543,-0.266l-0.129,-1.11c-0.34,-0.817 -0.843,-1.428 -1.51,-1.832c-0.667,-0.404 -1.7,-0.673 -3.099,-0.807c-1.295,-0.124 -2.603,-0.119 -3.923,0.015Z" style="fill-rule:nonzero;"/><path d="M709.23,177.563l-2.633,12.131c-0.265,1.221 -0.534,2.521 -0.806,3.9c-0.273,1.379 -0.489,2.743 -0.649,4.093c-0.16,1.35 -0.224,2.628 -0.192,3.833c0.031,1.206 0.218,2.245 0.561,3.118l-1.317,6.625c-0.135,0.743 -0.301,1.572 -0.5,2.488c-1.09,-0.13 -2.28,-0.295 -3.568,-0.495c-1.288,-0.199 -2.543,-0.432 -3.763,-0.696c-2.035,-0.442 -4.173,-0.959 -6.414,-1.552c-2.242,-0.593 -4.123,-1.188 -5.645,-1.784c0.225,-1.283 0.46,-2.55 0.705,-3.802c0.245,-1.252 0.511,-2.539 0.798,-3.861c0.811,-0.303 1.541,-1.21 2.188,-2.721c0.647,-1.511 1.234,-3.234 1.761,-5.17c0.527,-1.937 0.98,-3.902 1.36,-5.897c0.379,-1.995 0.707,-3.628 0.983,-4.9l1.722,-7.935c0.408,-1.882 0.765,-3.709 1.069,-5.48c0.305,-1.771 0.608,-3.476 0.91,-5.115c-1.293,-0.174 -2.287,0.169 -2.98,1.031c-0.693,0.861 -1.535,1.984 -2.528,3.366l-2.06,-0.447c-1.322,-0.287 -2.548,-0.593 -3.675,-0.917c-1.128,-0.325 -2.139,-0.638 -3.033,-0.938c0.203,-2.406 0.614,-5.1 1.235,-8.081c0.62,-2.981 1.206,-5.743 1.758,-8.287c4.095,0.516 8.629,1.287 13.599,2.312c4.97,1.025 9.999,2.09 15.086,3.194c2.899,0.629 5.39,1.236 7.474,1.821c2.083,0.585 4.047,1.291 5.892,2.118c-0.232,2.293 -0.603,4.742 -1.115,7.347c-0.513,2.606 -1.056,5.231 -1.629,7.876c-1.091,-0.13 -2.384,-0.305 -3.882,-0.523c-1.497,-0.218 -2.791,-0.392 -3.881,-0.523c-0.122,-0.665 -0.231,-1.328 -0.327,-1.988c-0.097,-0.66 -0.281,-1.286 -0.552,-1.877c-0.271,-0.592 -0.671,-1.078 -1.201,-1.459c-0.53,-0.382 -1.258,-0.646 -2.185,-0.794l-2.566,9.989Z" style="fill-rule:nonzero;"/><path d="M772.365,191.043c-0.283,1.392 -0.707,2.982 -1.273,4.77c-0.565,1.788 -1.167,3.563 -1.806,5.325c-2.112,5.822 -4.118,10.631 -6.02,14.426c-1.902,3.795 -3.938,6.698 -6.106,8.707c-2.168,2.01 -4.619,3.156 -7.351,3.439c-2.732,0.282 -5.942,-0.217 -9.63,-1.499c-1.241,-0.395 -2.512,-0.897 -3.813,-1.507c-1.302,-0.611 -2.448,-1.151 -3.44,-1.622c-2.865,-1.26 -4.977,-2.842 -6.335,-4.746c-1.358,-1.905 -2.144,-4.127 -2.357,-6.669c-0.214,-2.541 0.084,-5.423 0.893,-8.645c0.808,-3.223 1.931,-6.816 3.368,-10.779c1.544,-4.257 3.109,-8.23 4.696,-11.918c1.586,-3.688 3.435,-6.727 5.548,-9.117c2.112,-2.389 4.586,-3.984 7.423,-4.782c2.836,-0.799 6.31,-0.453 10.42,1.038l1.468,0.532c3.327,1.207 6.114,2.453 8.361,3.738c2.247,1.285 3.953,2.803 5.117,4.554c1.165,1.751 1.815,3.814 1.95,6.189c0.136,2.374 -0.235,5.23 -1.113,8.566Zm-18.118,5.305c0.958,-2.642 1.803,-5.201 2.534,-7.676c0.732,-2.475 1.134,-5.112 1.207,-7.909c-0.018,-0.56 -0.188,-1.009 -0.508,-1.347c-0.321,-0.338 -0.921,-0.666 -1.802,-0.985c-0.881,-0.32 -1.78,-0.092 -2.698,0.682c-0.917,0.775 -1.837,1.936 -2.758,3.485c-0.921,1.548 -1.842,3.401 -2.763,5.559c-0.921,2.157 -1.816,4.435 -2.685,6.833l-1.544,4.257c-0.621,1.712 -1.239,3.454 -1.853,5.224c-0.614,1.771 -1.069,3.405 -1.363,4.904c-0.295,1.499 -0.361,2.79 -0.2,3.872c0.161,1.083 0.706,1.793 1.636,2.13c1.37,0.497 2.679,0.169 3.928,-0.984c1.249,-1.153 2.397,-2.716 3.444,-4.689c1.048,-1.973 2.028,-4.179 2.939,-6.616c0.912,-2.438 1.74,-4.684 2.486,-6.74Z" style="fill-rule:nonzero;"/><path d="M807.334,243.373c-1.051,1.679 -2.165,3.472 -3.342,5.378c-1.178,1.907 -2.433,3.74 -3.767,5.5c-2.235,-1.122 -4.412,-2.241 -6.531,-3.357c-2.118,-1.117 -4.154,-2.544 -6.106,-4.282c0.454,-1.891 0.902,-3.905 1.344,-6.041c0.441,-2.136 0.855,-4.302 1.241,-6.499c0.386,-2.197 0.73,-4.372 1.032,-6.526c0.303,-2.154 0.532,-4.229 0.688,-6.226c0.015,-0.349 0.057,-0.935 0.128,-1.76c0.07,-0.824 0.153,-1.67 0.249,-2.54c0.096,-0.87 0.171,-1.676 0.227,-2.419c0.055,-0.743 0.052,-1.221 -0.009,-1.433c-0.601,0.976 -1.047,1.725 -1.337,2.249c-0.291,0.523 -0.663,1.194 -1.118,2.013c-0.454,0.82 -1.081,1.975 -1.879,3.467c-0.798,1.491 -1.97,3.683 -3.516,6.576c-0.637,1.254 -0.981,2.223 -1.034,2.908c-0.053,0.685 -0.074,1.448 -0.063,2.287c-0.278,0.5 -0.665,1.223 -1.16,2.169c-0.495,0.946 -1.02,1.919 -1.576,2.92c-0.556,1.001 -1.103,1.933 -1.641,2.795c-0.538,0.863 -0.966,1.473 -1.284,1.832c-2.276,-1.263 -4.551,-2.526 -6.827,-3.789c-2.275,-1.263 -4.624,-2.715 -7.046,-4.357c0.575,-1.466 1.333,-3.1 2.273,-4.9c0.939,-1.8 2.053,-3.861 3.341,-6.182c0.395,0.041 0.735,-0.009 1.02,-0.148c0.286,-0.139 0.598,-0.353 0.936,-0.641c1.006,-1.168 2.388,-3.229 4.146,-6.182c1.758,-2.953 3.875,-6.66 6.35,-11.12c0.682,-1.228 1.372,-2.498 2.069,-3.807c0.697,-1.31 1.462,-2.716 2.296,-4.218c0.354,-0.637 0.623,-1.202 0.807,-1.695c0.184,-0.493 0.315,-0.971 0.394,-1.433c0.078,-0.463 0.152,-0.972 0.223,-1.528c0.07,-0.556 0.191,-1.204 0.363,-1.942c0.055,-0.207 0.228,-0.572 0.519,-1.096l2.122,-3.823c0.391,-0.705 0.741,-1.389 1.049,-2.051c1.032,0.394 2.066,0.863 3.102,1.409c1.037,0.545 2.079,1.109 3.125,1.69c1.821,1.01 3.526,1.986 5.116,2.929c1.591,0.942 3.165,1.994 4.722,3.156c-0.034,1.886 -0.33,4.43 -0.888,7.633c-0.557,3.203 -1.169,6.584 -1.834,10.143c-0.187,1.087 -0.366,2.134 -0.538,3.14c-0.171,1.006 -0.336,2.001 -0.495,2.984c-0.159,0.984 -0.33,1.99 -0.515,3.019c-0.184,1.029 -0.371,2.145 -0.563,3.348c0.252,-0.455 0.687,-1.211 1.303,-2.268c0.617,-1.057 1.283,-2.205 2.001,-3.444c0.717,-1.239 1.435,-2.477 2.152,-3.716c0.717,-1.239 1.303,-2.268 1.758,-3.087c0.379,-0.683 0.643,-1.266 0.792,-1.749c0.149,-0.483 0.237,-0.91 0.265,-1.281c0.027,-0.372 0.025,-0.716 -0.008,-1.032c-0.033,-0.316 -0.03,-0.671 0.011,-1.065c1.071,-2.144 1.99,-3.881 2.758,-5.211c0.768,-1.33 1.576,-2.652 2.425,-3.967c0.824,0.338 1.744,0.745 2.761,1.22c1.016,0.475 1.934,0.939 2.753,1.394c0.728,0.404 1.518,0.858 2.37,1.36c0.852,0.503 1.709,1.023 2.572,1.561c0.862,0.538 1.653,1.097 2.374,1.675c0.721,0.579 1.326,1.123 1.817,1.634c-0.379,0.682 -0.792,1.48 -1.239,2.393c-0.447,0.912 -0.906,1.819 -1.375,2.719c-0.47,0.9 -0.915,1.755 -1.334,2.564c-0.419,0.809 -0.791,1.451 -1.114,1.926c-0.682,0.157 -1.362,0.39 -2.04,0.699c-0.677,0.308 -1.205,0.804 -1.584,1.487c-0.955,1.613 -1.954,3.305 -2.997,5.078c-1.043,1.772 -2.17,3.722 -3.38,5.848c-1.21,2.126 -2.54,4.469 -3.989,7.027c-1.45,2.559 -3.072,5.454 -4.865,8.685Z" style="fill-rule:nonzero;"/></g></svg>